<?xml version="1.0" standalone="no"?>
<svg xmlns:xlink="http://www.w3.org/1999/xlink" id="wave" style="transform:rotate(180deg); transition: 0.3s" viewBox="0 0 1440 180" version="1.1" xmlns="http://www.w3.org/2000/svg"><defs><linearGradient id="sw-gradient-0" x1="0" x2="0" y1="1" y2="0"><stop stop-color="rgba(0, 0, 0, 1)" offset="0%"/><stop stop-color="rgba(0, 0, 0, 1)" offset="100%"/></linearGradient></defs><path style="transform:translate(0, 0px); opacity:1" fill="url(#sw-gradient-0)" d="M0,18L10,42C20,66,40,114,60,126C80,138,100,114,120,102C140,90,160,90,180,84C200,78,220,66,240,78C260,90,280,126,300,138C320,150,340,138,360,117C380,96,400,66,420,63C440,60,460,84,480,90C500,96,520,84,540,72C560,60,580,48,600,48C620,48,640,60,660,57C680,54,700,36,720,36C740,36,760,54,780,72C800,90,820,108,840,99C860,90,880,54,900,54C920,54,940,90,960,108C980,126,1000,126,1020,111C1040,96,1060,66,1080,60C1100,54,1120,72,1140,66C1160,60,1180,30,1200,27C1220,24,1240,48,1260,66C1280,84,1300,96,1320,111C1340,126,1360,144,1380,129C1400,114,1420,66,1430,42L1440,18L1440,180L1430,180C1420,180,1400,180,1380,180C1360,180,1340,180,1320,180C1300,180,1280,180,1260,180C1240,180,1220,180,1200,180C1180,180,1160,180,1140,180C1120,180,1100,180,1080,180C1060,180,1040,180,1020,180C1000,180,980,180,960,180C940,180,920,180,900,180C880,180,860,180,840,180C820,180,800,180,780,180C760,180,740,180,720,180C700,180,680,180,660,180C640,180,620,180,600,180C580,180,560,180,540,180C520,180,500,180,480,180C460,180,440,180,420,180C400,180,380,180,360,180C340,180,320,180,300,180C280,180,260,180,240,180C220,180,200,180,180,180C160,180,140,180,120,180C100,180,80,180,60,180C40,180,20,180,10,180L0,180Z"/></svg>