<?xml version="1.0" standalone="no"?>
<svg xmlns:xlink="http://www.w3.org/1999/xlink" id="wave" style="transform:rotate(180deg); transition: 0.3s" viewBox="0 0 1440 420" version="1.1" xmlns="http://www.w3.org/2000/svg"><defs><linearGradient id="sw-gradient-0" x1="0" x2="0" y1="1" y2="0"><stop stop-color="rgba(0, 0, 0, 1)" offset="0%"/><stop stop-color="rgba(0, 0, 0, 1)" offset="100%"/></linearGradient></defs><path style="transform:translate(0, 0px); opacity:1" fill="url(#sw-gradient-0)" d="M0,210L1440,378L2880,378L4320,336L5760,42L7200,294L8640,168L10080,378L11520,168L12960,168L14400,126L15840,42L17280,294L18720,168L20160,336L21600,168L23040,252L24480,210L25920,0L27360,168L28800,84L30240,168L31680,168L33120,252L34560,0L34560,420L33120,420L31680,420L30240,420L28800,420L27360,420L25920,420L24480,420L23040,420L21600,420L20160,420L18720,420L17280,420L15840,420L14400,420L12960,420L11520,420L10080,420L8640,420L7200,420L5760,420L4320,420L2880,420L1440,420L0,420Z"/></svg>