<?xml version="1.0" standalone="no"?>
<svg xmlns:xlink="http://www.w3.org/1999/xlink" id="wave" style="transform:rotate(180deg); transition: 0.3s" viewBox="0 0 1440 320" version="1.1" xmlns="http://www.w3.org/2000/svg"><defs><linearGradient id="sw-gradient-0" x1="0" x2="0" y1="1" y2="0"><stop stop-color="rgba(8.566, 8.184, 8.061, 1)" offset="0%"/><stop stop-color="rgba(0, 0, 0, 1)" offset="100%"/></linearGradient></defs><path style="transform:translate(0, 0px); opacity:1" fill="url(#sw-gradient-0)" d="M0,128L34.3,133.3C68.6,139,137,149,206,138.7C274.3,128,343,96,411,106.7C480,117,549,171,617,202.7C685.7,235,754,245,823,229.3C891.4,213,960,171,1029,160C1097.1,149,1166,171,1234,176C1302.9,181,1371,171,1440,154.7C1508.6,139,1577,117,1646,117.3C1714.3,117,1783,139,1851,170.7C1920,203,1989,245,2057,224C2125.7,203,2194,117,2263,90.7C2331.4,64,2400,96,2469,90.7C2537.1,85,2606,43,2674,21.3C2742.9,0,2811,0,2880,21.3C2948.6,43,3017,85,3086,122.7C3154.3,160,3223,192,3291,176C3360,160,3429,96,3497,69.3C3565.7,43,3634,53,3703,64C3771.4,75,3840,85,3909,106.7C3977.1,128,4046,160,4114,170.7C4182.9,181,4251,171,4320,144C4388.6,117,4457,75,4526,69.3C4594.3,64,4663,96,4731,90.7C4800,85,4869,43,4903,21.3L4937.1,0L4937.1,320L4902.9,320C4868.6,320,4800,320,4731,320C4662.9,320,4594,320,4526,320C4457.1,320,4389,320,4320,320C4251.4,320,4183,320,4114,320C4045.7,320,3977,320,3909,320C3840,320,3771,320,3703,320C3634.3,320,3566,320,3497,320C3428.6,320,3360,320,3291,320C3222.9,320,3154,320,3086,320C3017.1,320,2949,320,2880,320C2811.4,320,2743,320,2674,320C2605.7,320,2537,320,2469,320C2400,320,2331,320,2263,320C2194.3,320,2126,320,2057,320C1988.6,320,1920,320,1851,320C1782.9,320,1714,320,1646,320C1577.1,320,1509,320,1440,320C1371.4,320,1303,320,1234,320C1165.7,320,1097,320,1029,320C960,320,891,320,823,320C754.3,320,686,320,617,320C548.6,320,480,320,411,320C342.9,320,274,320,206,320C137.1,320,69,320,34,320L0,320Z"/></svg>